SplineFontDB: 3.0
FontName: CloisterStM
FullName: Sorts Mill Cloister
FamilyName: Sorts Mill Cloister
Weight: Regular
Copyright: Created by trashman with FontForge 2.0 (http://fontforge.sf.net)
UComments: "2010-9-19: Created." 
Version: 001.000
ItalicAngle: 0
UnderlinePosition: -100
UnderlineWidth: 50
Ascent: 800
Descent: 200
LayerCount: 2
Layer: 0 0 "Back"  1
Layer: 1 0 "Fore"  0
NeedsXUIDChange: 1
XUID: [1021 658 797806517 6471305]
OS2Version: 0
OS2_WeightWidthSlopeOnly: 0
OS2_UseTypoMetrics: 1
CreationTime: 1284878830
ModificationTime: 1284886256
OS2TypoAscent: 0
OS2TypoAOffset: 1
OS2TypoDescent: 0
OS2TypoDOffset: 1
OS2TypoLinegap: 0
OS2WinAscent: 0
OS2WinAOffset: 1
OS2WinDescent: 0
OS2WinDOffset: 1
HheadAscent: 0
HheadAOffset: 1
HheadDescent: 0
HheadDOffset: 1
OS2Vendor: 'PfEd'
MarkAttachClasses: 1
DEI: 91125
Encoding: UnicodeBmp
UnicodeInterp: none
NameList: Adobe Glyph List
DisplaySize: -48
AntiAlias: 1
FitToEm: 1
WinInfo: 60 12 5
BeginChars: 65536 52

StartChar: A
Encoding: 65 65 0
Width: 768
VWidth: 0
Flags: HW
LayerCount: 2
Fore
SplineSet
280 260 m 0
 280 295 309 324 344 324 c 0
 379 324 408 295 408 260 c 0
 408 225 379 196 344 196 c 0
 309 196 280 225 280 260 c 0
EndSplineSet
EndChar

StartChar: B
Encoding: 66 66 1
Width: 768
VWidth: 0
Flags: HW
LayerCount: 2
Fore
SplineSet
280 260 m 4
 280 295 309 324 344 324 c 4
 379 324 408 295 408 260 c 4
 408 225 379 196 344 196 c 4
 309 196 280 225 280 260 c 4
EndSplineSet
EndChar

StartChar: C
Encoding: 67 67 2
Width: 768
VWidth: 0
Flags: HW
LayerCount: 2
Fore
SplineSet
280 260 m 4
 280 295 309 324 344 324 c 4
 379 324 408 295 408 260 c 4
 408 225 379 196 344 196 c 4
 309 196 280 225 280 260 c 4
EndSplineSet
EndChar

StartChar: D
Encoding: 68 68 3
Width: 768
VWidth: 0
Flags: HW
LayerCount: 2
Fore
SplineSet
280 260 m 4
 280 295 309 324 344 324 c 4
 379 324 408 295 408 260 c 4
 408 225 379 196 344 196 c 4
 309 196 280 225 280 260 c 4
EndSplineSet
EndChar

StartChar: E
Encoding: 69 69 4
Width: 644
VWidth: 0
Flags: HWO
LayerCount: 2
Fore
SplineSet
547 616 m 0
 547 576 533 484 533 484 c 1
 526 482 516 481 506 482 c 1
 493 526 487 582 432 582 c 2
 431 582 l 1
 368 581 l 1
 257 578 l 2
 223 577 214 583 214 547 c 2
 212 342 l 1
 407 347 l 2
 441 348 446 358 452 375 c 2
 465 416 l 1
 468 416 471 416 474 416 c 0
 489 416 493 414 502 411 c 1
 493 348 489 286 489 216 c 0
 489 207 476 206 476 206 c 1
 466 208 460 210 449 217 c 1
 444 256 l 2
 440 291 419 288 384 290 c 0
 347 292 321 294 294 294 c 2
 212 294 l 1
 211 233 208 172 208 110 c 0
 208 65 217 48 256 48 c 2
 399 48 l 2
 484 48 505 110 524 157 c 1
 531 157 l 2
 541 157 551 155 563 142 c 1
 544 76 l 2
 537 51 532 27 529 8 c 1
 529 8 518 0 516 0 c 0
 428 1 321 3 223 3 c 0
 171 3 123 2 77 -0 c 0
 68 0 65 2 61 12 c 1
 61 34 l 1
 61 34 67 37 79 41 c 0
 112 52 115 54 115 83 c 2
 115 124 l 1
 118 261 125 398 125 535 c 0
 125 579 102 587 70 590 c 1
 69 595 69 599 69 603 c 0
 69 618 74 629 79 629 c 2
 227 625 l 1
 295 626 352 626 423 628 c 0
 449 629 527 632 538 632 c 0
 542 632 547 618 547 616 c 0
EndSplineSet
EndChar

StartChar: F
Encoding: 70 70 5
Width: 768
VWidth: 0
Flags: HW
LayerCount: 2
Fore
SplineSet
280 260 m 4
 280 295 309 324 344 324 c 4
 379 324 408 295 408 260 c 4
 408 225 379 196 344 196 c 4
 309 196 280 225 280 260 c 4
EndSplineSet
EndChar

StartChar: G
Encoding: 71 71 6
Width: 768
VWidth: 0
Flags: HW
LayerCount: 2
Fore
SplineSet
280 260 m 4
 280 295 309 324 344 324 c 4
 379 324 408 295 408 260 c 4
 408 225 379 196 344 196 c 4
 309 196 280 225 280 260 c 4
EndSplineSet
EndChar

StartChar: H
Encoding: 72 72 7
Width: 768
VWidth: 0
Flags: HW
LayerCount: 2
Fore
SplineSet
280 260 m 4
 280 295 309 324 344 324 c 4
 379 324 408 295 408 260 c 4
 408 225 379 196 344 196 c 4
 309 196 280 225 280 260 c 4
EndSplineSet
EndChar

StartChar: I
Encoding: 73 73 8
Width: 768
VWidth: 0
Flags: HW
LayerCount: 2
Fore
SplineSet
280 260 m 4
 280 295 309 324 344 324 c 4
 379 324 408 295 408 260 c 4
 408 225 379 196 344 196 c 4
 309 196 280 225 280 260 c 4
EndSplineSet
EndChar

StartChar: J
Encoding: 74 74 9
Width: 768
VWidth: 0
Flags: HW
LayerCount: 2
Fore
SplineSet
280 260 m 4
 280 295 309 324 344 324 c 4
 379 324 408 295 408 260 c 4
 408 225 379 196 344 196 c 4
 309 196 280 225 280 260 c 4
EndSplineSet
EndChar

StartChar: K
Encoding: 75 75 10
Width: 768
VWidth: 0
Flags: HW
LayerCount: 2
Fore
SplineSet
280 260 m 4
 280 295 309 324 344 324 c 4
 379 324 408 295 408 260 c 4
 408 225 379 196 344 196 c 4
 309 196 280 225 280 260 c 4
EndSplineSet
EndChar

StartChar: L
Encoding: 76 76 11
Width: 768
VWidth: 0
Flags: HW
LayerCount: 2
Fore
SplineSet
280 260 m 4
 280 295 309 324 344 324 c 4
 379 324 408 295 408 260 c 4
 408 225 379 196 344 196 c 4
 309 196 280 225 280 260 c 4
EndSplineSet
EndChar

StartChar: M
Encoding: 77 77 12
Width: 768
VWidth: 0
Flags: HW
LayerCount: 2
Fore
SplineSet
280 260 m 4
 280 295 309 324 344 324 c 4
 379 324 408 295 408 260 c 4
 408 225 379 196 344 196 c 4
 309 196 280 225 280 260 c 4
EndSplineSet
EndChar

StartChar: N
Encoding: 78 78 13
Width: 768
VWidth: 0
Flags: HW
LayerCount: 2
Fore
SplineSet
280 260 m 4
 280 295 309 324 344 324 c 4
 379 324 408 295 408 260 c 4
 408 225 379 196 344 196 c 4
 309 196 280 225 280 260 c 4
EndSplineSet
EndChar

StartChar: O
Encoding: 79 79 14
Width: 768
VWidth: 0
Flags: HW
LayerCount: 2
Fore
SplineSet
280 260 m 4
 280 295 309 324 344 324 c 4
 379 324 408 295 408 260 c 4
 408 225 379 196 344 196 c 4
 309 196 280 225 280 260 c 4
EndSplineSet
EndChar

StartChar: P
Encoding: 80 80 15
Width: 768
VWidth: 0
Flags: HW
LayerCount: 2
Fore
SplineSet
280 260 m 4
 280 295 309 324 344 324 c 4
 379 324 408 295 408 260 c 4
 408 225 379 196 344 196 c 4
 309 196 280 225 280 260 c 4
EndSplineSet
EndChar

StartChar: Q
Encoding: 81 81 16
Width: 768
VWidth: 0
Flags: HW
LayerCount: 2
Fore
SplineSet
280 260 m 4
 280 295 309 324 344 324 c 4
 379 324 408 295 408 260 c 4
 408 225 379 196 344 196 c 4
 309 196 280 225 280 260 c 4
EndSplineSet
EndChar

StartChar: R
Encoding: 82 82 17
Width: 768
VWidth: 0
Flags: HW
LayerCount: 2
Fore
SplineSet
280 260 m 4
 280 295 309 324 344 324 c 4
 379 324 408 295 408 260 c 4
 408 225 379 196 344 196 c 4
 309 196 280 225 280 260 c 4
EndSplineSet
EndChar

StartChar: S
Encoding: 83 83 18
Width: 768
VWidth: 0
Flags: HW
LayerCount: 2
Fore
SplineSet
280 260 m 4
 280 295 309 324 344 324 c 4
 379 324 408 295 408 260 c 4
 408 225 379 196 344 196 c 4
 309 196 280 225 280 260 c 4
EndSplineSet
EndChar

StartChar: T
Encoding: 84 84 19
Width: 768
VWidth: 0
Flags: HW
LayerCount: 2
Fore
SplineSet
280 260 m 4
 280 295 309 324 344 324 c 4
 379 324 408 295 408 260 c 4
 408 225 379 196 344 196 c 4
 309 196 280 225 280 260 c 4
EndSplineSet
EndChar

StartChar: U
Encoding: 85 85 20
Width: 768
VWidth: 0
Flags: HW
LayerCount: 2
Fore
SplineSet
280 260 m 4
 280 295 309 324 344 324 c 4
 379 324 408 295 408 260 c 4
 408 225 379 196 344 196 c 4
 309 196 280 225 280 260 c 4
EndSplineSet
EndChar

StartChar: V
Encoding: 86 86 21
Width: 768
VWidth: 0
Flags: HW
LayerCount: 2
Fore
SplineSet
280 260 m 4
 280 295 309 324 344 324 c 4
 379 324 408 295 408 260 c 4
 408 225 379 196 344 196 c 4
 309 196 280 225 280 260 c 4
EndSplineSet
EndChar

StartChar: W
Encoding: 87 87 22
Width: 768
VWidth: 0
Flags: HW
LayerCount: 2
Fore
SplineSet
280 260 m 4
 280 295 309 324 344 324 c 4
 379 324 408 295 408 260 c 4
 408 225 379 196 344 196 c 4
 309 196 280 225 280 260 c 4
EndSplineSet
EndChar

StartChar: X
Encoding: 88 88 23
Width: 768
VWidth: 0
Flags: HW
LayerCount: 2
Fore
SplineSet
280 260 m 4
 280 295 309 324 344 324 c 4
 379 324 408 295 408 260 c 4
 408 225 379 196 344 196 c 4
 309 196 280 225 280 260 c 4
EndSplineSet
EndChar

StartChar: Y
Encoding: 89 89 24
Width: 768
VWidth: 0
Flags: HW
LayerCount: 2
Fore
SplineSet
280 260 m 4
 280 295 309 324 344 324 c 4
 379 324 408 295 408 260 c 4
 408 225 379 196 344 196 c 4
 309 196 280 225 280 260 c 4
EndSplineSet
EndChar

StartChar: Z
Encoding: 90 90 25
Width: 768
VWidth: 0
Flags: HW
LayerCount: 2
Fore
SplineSet
280 260 m 4
 280 295 309 324 344 324 c 4
 379 324 408 295 408 260 c 4
 408 225 379 196 344 196 c 4
 309 196 280 225 280 260 c 4
EndSplineSet
EndChar

